<svg width="80" height="86" viewBox="0 0 80 86" fill="none" xmlns="http://www.w3.org/2000/svg">
<path d="M77.3094 59.267C74.3666 57.8184 71.526 56.1681 68.599 54.6881C67.7241 54.2464 67.4242 53.7576 67.4332 52.7844C67.4878 47.2459 67.4628 41.7051 67.4514 36.1665C67.4446 33.3972 65.4176 30.027 61.4385 30.2737C61.168 30.2894 60.8931 30.2737 60.5704 30.2737C60.5704 29.1166 60.6249 28.0807 60.559 27.0515C60.4386 25.1858 60.4659 23.2731 60.05 21.4658C57.5685 10.6757 50.9283 3.48011 40.0159 0.863312C29.1171 -1.75124 19.8727 1.64364 12.7213 10.151C8.76037 14.8622 6.95148 20.4164 6.92421 26.5312C6.91967 27.7533 6.92421 28.9776 6.92421 30.2782C6.41518 30.2782 5.99705 30.2782 5.57891 30.2782C3.66095 30.2782 2.20202 31.119 1.13396 32.6528C0.372685 33.7471 0.0340867 34.9781 0.0295418 36.2943C0.0181794 39.1937 0.011362 58.3162 0.0249968 62.8076C0.00227213 66.577 -0.0318149 70.3486 0.0749911 74.1157C0.177252 77.6989 2.55198 79.7977 6.16748 79.7977C22.9883 79.7977 39.8114 79.8022 56.6322 79.7843C57.2594 79.7843 57.6525 79.9569 58.0502 80.4525C59.9523 82.8271 62.2088 84.7892 65.0676 86.0023H66.4311C67.4105 85.4551 68.4445 84.9842 69.3558 84.3452C72.4577 82.1746 74.6529 79.2304 76.4572 75.988C78.5615 72.2097 79.8432 68.2049 79.9932 63.8593C80.0659 61.7223 79.3069 60.2536 77.3071 59.2692L77.3094 59.267ZM21.4203 6.96693C29.7989 1.87236 38.4979 2.0226 46.7129 7.37727C54.9392 12.7409 57.8071 20.7326 57.0344 30.2311H52.3168C52.3168 28.5 52.419 26.8205 52.3009 25.1544C51.6441 15.9183 43.92 8.47153 34.6892 8.11276C25.0949 7.74053 16.7867 14.3868 15.3255 23.6297C15.1596 24.6746 15.146 25.7464 15.1119 26.807C15.0778 27.9215 15.1051 29.0382 15.1051 30.2131H10.417C9.68526 20.4142 12.7372 12.2476 21.4226 6.96693H21.4203ZM48.7922 30.249H18.6524C17.214 20.0688 23.2519 12.7028 31.7941 11.6467C40.2613 10.6017 47.4469 16.0282 48.7467 24.3293C49.0444 26.233 48.7899 28.222 48.7899 30.2468L48.7922 30.249ZM54.4415 76.4185C38.2161 76.4185 21.9907 76.4141 5.76525 76.4298C4.76991 76.4298 4.09953 76.006 3.79048 75.1471C3.57005 74.5328 3.48369 73.8421 3.48142 73.1829C3.4587 69.6108 3.47006 66.0366 3.46324 62.4623C3.47688 57.583 3.46324 39.5659 3.46779 36.9469C3.46779 36.5567 3.46552 36.1598 3.51551 35.7741C3.69276 34.3928 4.52449 33.6506 5.88569 33.6506C24.4699 33.6506 43.0519 33.6506 61.6362 33.6506C62.7792 33.6506 63.4678 34.0991 63.8041 35.1664C63.9677 35.6889 64.0268 36.2652 64.0291 36.8168C64.045 42.2724 64.0291 47.728 64.0541 53.1835C64.0564 53.8181 63.8927 54.1679 63.2928 54.4774C60.2522 56.0448 57.2799 57.7512 54.2052 59.2535C52.1236 60.2693 51.376 61.8143 51.4896 63.9961C51.6282 66.642 52.0918 69.2184 53.0599 71.6872C53.678 73.2658 54.4165 74.7973 55.1301 76.4185H54.4461H54.4415ZM76.5663 63.8705C76.2232 69.4584 74.1257 74.026 70.9124 78.1519C69.6784 79.7372 68.2241 81.096 66.5084 82.1925C65.9425 82.5536 65.5244 82.5244 64.9744 82.1791C61.9657 80.2866 59.8773 77.598 58.1661 74.591C56.255 71.2298 55.0256 67.669 54.9392 63.7673C54.9233 62.9893 55.171 62.5767 55.8732 62.2156C58.966 60.6236 62.0316 58.9845 65.0881 57.3296C65.5721 57.0673 65.9334 57.0673 66.4129 57.3251C69.3467 58.9127 72.2781 60.5047 75.2528 62.0161C76.2254 62.5116 76.8731 63.0274 76.5663 63.8705Z" fill="#357EFE"/>
</svg>
